<mxfile host="app.diagrams.net" modified="2024-03-18T23:07:35.713Z" agent="Mozilla/5.0 (Windows NT 10.0; Win64; x64; rv:123.0) Gecko/20100101 Firefox/123.0" etag="0X4sQ0XOkvA-D_Epx1ch" version="23.1.4" type="device">
  <diagram name="Seite-1" id="zQvZeJ3rWClt_cJXR80Y">
    <mxGraphModel dx="875" dy="1641" grid="1" gridSize="10" guides="1" tooltips="1" connect="1" arrows="1" fold="1" page="1" pageScale="1" pageWidth="827" pageHeight="1169" math="0" shadow="0">
      <root>
        <mxCell id="0" />
        <mxCell id="1" parent="0" />
        <mxCell id="EqzYKrc67vdqZvnxpz0O-5" value="&lt;b&gt;Tierpfleger&lt;/b&gt;" style="html=1;" parent="1" vertex="1">
          <mxGeometry x="480" y="-900" width="80" height="30" as="geometry" />
        </mxCell>
        <mxCell id="EqzYKrc67vdqZvnxpz0O-6" value="&lt;b&gt;Futter&lt;/b&gt;" style="html=1;" parent="1" vertex="1">
          <mxGeometry x="480" y="-970" width="80" height="30" as="geometry" />
        </mxCell>
        <mxCell id="EqzYKrc67vdqZvnxpz0O-7" value="besorgt" style="endArrow=none;html=1;rounded=0;align=left;spacing=5;labelBackgroundColor=none;" parent="1" source="EqzYKrc67vdqZvnxpz0O-6" target="EqzYKrc67vdqZvnxpz0O-5" edge="1">
          <mxGeometry width="50" height="50" relative="1" as="geometry">
            <mxPoint x="870" y="-940.29" as="sourcePoint" />
            <mxPoint x="920" y="-990.29" as="targetPoint" />
          </mxGeometry>
        </mxCell>
        <mxCell id="EqzYKrc67vdqZvnxpz0O-10" value="&lt;b&gt;Kind&lt;/b&gt;" style="html=1;" parent="1" vertex="1">
          <mxGeometry x="200" y="-775" width="70" height="30" as="geometry" />
        </mxCell>
        <mxCell id="EqzYKrc67vdqZvnxpz0O-11" value="&lt;b&gt;Zoo&lt;/b&gt;" style="html=1;" parent="1" vertex="1">
          <mxGeometry x="330" y="-1000" width="100" height="40" as="geometry" />
        </mxCell>
        <mxCell id="EqzYKrc67vdqZvnxpz0O-12" value="&lt;b&gt;Gehege&lt;/b&gt;" style="html=1;" parent="1" vertex="1">
          <mxGeometry x="340" y="-900" width="80" height="30" as="geometry" />
        </mxCell>
        <mxCell id="EqzYKrc67vdqZvnxpz0O-14" value="&lt;b&gt;Streichelzoo&lt;/b&gt;" style="html=1;" parent="1" vertex="1">
          <mxGeometry x="340" y="-1090" width="80" height="30" as="geometry" />
        </mxCell>
        <mxCell id="EqzYKrc67vdqZvnxpz0O-25" value="&lt;b&gt;Besucher&lt;/b&gt;" style="html=1;" parent="1" vertex="1">
          <mxGeometry x="200" y="-1000" width="70" height="40" as="geometry" />
        </mxCell>
        <mxCell id="EqzYKrc67vdqZvnxpz0O-26" value="&lt;b&gt;Tierarzt&lt;/b&gt;" style="html=1;" parent="1" vertex="1">
          <mxGeometry x="221.25" y="-637.58" width="80" height="30" as="geometry" />
        </mxCell>
        <mxCell id="EqzYKrc67vdqZvnxpz0O-27" value="&lt;b&gt;Krankheit&lt;/b&gt;" style="html=1;" parent="1" vertex="1">
          <mxGeometry x="458.75" y="-637.58" width="80" height="30" as="geometry" />
        </mxCell>
        <mxCell id="EqzYKrc67vdqZvnxpz0O-55" value="" style="endArrow=none;html=1;rounded=0;endSize=10;exitX=0.5;exitY=0;exitDx=0;exitDy=0;" parent="1" source="EqzYKrc67vdqZvnxpz0O-54" target="U6vyLVcHFpK1ejSDDKVv-2" edge="1">
          <mxGeometry width="50" height="50" relative="1" as="geometry">
            <mxPoint x="410" y="-640" as="sourcePoint" />
            <mxPoint x="365" y="-686" as="targetPoint" />
          </mxGeometry>
        </mxCell>
        <mxCell id="EqzYKrc67vdqZvnxpz0O-56" value="" style="endArrow=none;html=1;rounded=0;endSize=10;exitX=1;exitY=0.5;exitDx=0;exitDy=0;entryX=0;entryY=0.5;entryDx=0;entryDy=0;" parent="1" source="EqzYKrc67vdqZvnxpz0O-26" target="EqzYKrc67vdqZvnxpz0O-54" edge="1">
          <mxGeometry width="50" height="50" relative="1" as="geometry">
            <mxPoint x="353.75" y="-667.58" as="sourcePoint" />
            <mxPoint x="348.75" y="-642.58" as="targetPoint" />
          </mxGeometry>
        </mxCell>
        <mxCell id="EqzYKrc67vdqZvnxpz0O-57" value="" style="endArrow=none;html=1;rounded=0;endSize=10;exitX=1;exitY=0.5;exitDx=0;exitDy=0;" parent="1" source="EqzYKrc67vdqZvnxpz0O-54" target="EqzYKrc67vdqZvnxpz0O-27" edge="1">
          <mxGeometry width="50" height="50" relative="1" as="geometry">
            <mxPoint x="388.75" y="-642.58" as="sourcePoint" />
            <mxPoint x="688.75" y="-868.2900000000001" as="targetPoint" />
          </mxGeometry>
        </mxCell>
        <mxCell id="EqzYKrc67vdqZvnxpz0O-62" value="" style="endArrow=diamondThin;html=1;rounded=0;endSize=15;endFill=1;" parent="1" source="EqzYKrc67vdqZvnxpz0O-12" target="EqzYKrc67vdqZvnxpz0O-11" edge="1">
          <mxGeometry width="50" height="50" relative="1" as="geometry">
            <mxPoint x="380" y="-910" as="sourcePoint" />
            <mxPoint x="430" y="-960" as="targetPoint" />
          </mxGeometry>
        </mxCell>
        <mxCell id="NwiZL2l9Mzp3slvEkDgG-6" value="lebt im" style="endArrow=none;html=1;rounded=0;align=left;verticalAlign=middle;endFill=0;labelBackgroundColor=none;spacingRight=0;spacingLeft=0;spacing=5;" parent="1" source="U6vyLVcHFpK1ejSDDKVv-2" target="EqzYKrc67vdqZvnxpz0O-12" edge="1">
          <mxGeometry relative="1" as="geometry">
            <mxPoint x="470" y="-790" as="sourcePoint" />
            <mxPoint x="440" y="-790" as="targetPoint" />
          </mxGeometry>
        </mxCell>
        <mxCell id="NwiZL2l9Mzp3slvEkDgG-10" value="" style="endArrow=diamondThin;html=1;rounded=0;align=center;verticalAlign=top;endFill=0;labelBackgroundColor=none;endSize=15;" parent="1" source="EqzYKrc67vdqZvnxpz0O-14" target="EqzYKrc67vdqZvnxpz0O-11" edge="1">
          <mxGeometry relative="1" as="geometry">
            <mxPoint x="170" y="-1020" as="sourcePoint" />
            <mxPoint x="330" y="-1020" as="targetPoint" />
          </mxGeometry>
        </mxCell>
        <mxCell id="QlXY2a_psfLonuYqz-lr-2" value="" style="group" parent="1" vertex="1" connectable="0">
          <mxGeometry x="360" y="-657.58" width="40" height="59" as="geometry" />
        </mxCell>
        <mxCell id="EqzYKrc67vdqZvnxpz0O-54" value="" style="rhombus;" parent="QlXY2a_psfLonuYqz-lr-2" vertex="1">
          <mxGeometry x="-1.25" y="20" width="40" height="30" as="geometry" />
        </mxCell>
        <mxCell id="QlXY2a_psfLonuYqz-lr-3" value="" style="endArrow=none;html=1;rounded=0;dashed=1;" parent="1" target="U6vyLVcHFpK1ejSDDKVv-3" edge="1">
          <mxGeometry width="50" height="50" relative="1" as="geometry">
            <mxPoint x="290" y="-760" as="sourcePoint" />
            <mxPoint x="290" y="-822" as="targetPoint" />
          </mxGeometry>
        </mxCell>
        <mxCell id="3wvSP6Id9LyZV_VLinAv-1" value="" style="endArrow=none;html=1;rounded=0;" parent="1" source="EqzYKrc67vdqZvnxpz0O-25" target="EqzYKrc67vdqZvnxpz0O-11" edge="1">
          <mxGeometry width="50" height="50" relative="1" as="geometry">
            <mxPoint x="390" y="-850" as="sourcePoint" />
            <mxPoint x="440" y="-900" as="targetPoint" />
          </mxGeometry>
        </mxCell>
        <mxCell id="3wvSP6Id9LyZV_VLinAv-2" value="besucht" style="edgeLabel;html=1;align=center;verticalAlign=middle;resizable=0;points=[];rotation=0;labelBackgroundColor=none;" parent="3wvSP6Id9LyZV_VLinAv-1" vertex="1" connectable="0">
          <mxGeometry x="-0.0335" y="3" relative="1" as="geometry">
            <mxPoint x="1" y="-8" as="offset" />
          </mxGeometry>
        </mxCell>
        <mxCell id="3wvSP6Id9LyZV_VLinAv-3" value="" style="endArrow=none;html=1;rounded=0;verticalAlign=bottom;entryX=1;entryY=0.5;entryDx=0;entryDy=0;exitX=0.5;exitY=1;exitDx=0;exitDy=0;" parent="1" source="EqzYKrc67vdqZvnxpz0O-5" target="U6vyLVcHFpK1ejSDDKVv-2" edge="1">
          <mxGeometry width="50" height="50" relative="1" as="geometry">
            <mxPoint x="340" y="-660" as="sourcePoint" />
            <mxPoint x="290" y="-708.6382978723404" as="targetPoint" />
          </mxGeometry>
        </mxCell>
        <mxCell id="U6vyLVcHFpK1ejSDDKVv-2" value="Tier" style="html=1;fontStyle=1" parent="1" vertex="1">
          <mxGeometry x="330" y="-780" width="100" height="40" as="geometry" />
        </mxCell>
        <mxCell id="U6vyLVcHFpK1ejSDDKVv-3" value="Patenschaft" style="html=1;fontStyle=1" parent="1" vertex="1">
          <mxGeometry x="250" y="-825" width="80" height="30" as="geometry" />
        </mxCell>
        <mxCell id="U6vyLVcHFpK1ejSDDKVv-5" value="" style="endArrow=none;html=1;rounded=0;" parent="1" source="EqzYKrc67vdqZvnxpz0O-10" target="U6vyLVcHFpK1ejSDDKVv-2" edge="1">
          <mxGeometry width="50" height="50" relative="1" as="geometry">
            <mxPoint x="390" y="-725" as="sourcePoint" />
            <mxPoint x="440" y="-775" as="targetPoint" />
          </mxGeometry>
        </mxCell>
        <mxCell id="U6vyLVcHFpK1ejSDDKVv-6" value="Erwachsener" style="html=1;fontStyle=1" parent="1" vertex="1">
          <mxGeometry x="230" y="-879.5" width="85" height="30" as="geometry" />
        </mxCell>
        <mxCell id="U6vyLVcHFpK1ejSDDKVv-7" value="" style="endArrow=none;html=1;rounded=0;startArrow=block;startFill=0;endSize=6;startSize=10;entryX=0.235;entryY=-0.004;entryDx=0;entryDy=0;entryPerimeter=0;" parent="1" target="U6vyLVcHFpK1ejSDDKVv-6" edge="1">
          <mxGeometry width="50" height="50" relative="1" as="geometry">
            <mxPoint x="250" y="-960" as="sourcePoint" />
            <mxPoint x="250" y="-930" as="targetPoint" />
          </mxGeometry>
        </mxCell>
        <mxCell id="U6vyLVcHFpK1ejSDDKVv-9" value="" style="endArrow=block;html=1;rounded=0;endFill=0;endSize=10;entryX=0.25;entryY=1;entryDx=0;entryDy=0;exitX=0.25;exitY=0;exitDx=0;exitDy=0;" parent="1" source="EqzYKrc67vdqZvnxpz0O-10" target="EqzYKrc67vdqZvnxpz0O-25" edge="1">
          <mxGeometry width="50" height="50" relative="1" as="geometry">
            <mxPoint x="170" y="-895.75" as="sourcePoint" />
            <mxPoint x="230" y="-1010.75" as="targetPoint" />
          </mxGeometry>
        </mxCell>
        <mxCell id="U6vyLVcHFpK1ejSDDKVv-13" value="säubert" style="endArrow=none;html=1;rounded=0;verticalAlign=bottom;labelBackgroundColor=none;" parent="1" source="EqzYKrc67vdqZvnxpz0O-12" target="EqzYKrc67vdqZvnxpz0O-5" edge="1">
          <mxGeometry width="50" height="50" relative="1" as="geometry">
            <mxPoint x="160" y="-880" as="sourcePoint" />
            <mxPoint x="210" y="-930" as="targetPoint" />
          </mxGeometry>
        </mxCell>
        <mxCell id="QlXY2a_psfLonuYqz-lr-1" value="heilt" style="text;html=1;strokeColor=none;fillColor=none;align=center;verticalAlign=middle;whiteSpace=wrap;rounded=0;" parent="1" vertex="1">
          <mxGeometry x="360" y="-607.5775510204082" width="40" height="22.877551020408163" as="geometry" />
        </mxCell>
        <mxCell id="U6vyLVcHFpK1ejSDDKVv-18" value="füttert" style="edgeLabel;html=1;align=center;verticalAlign=middle;resizable=0;points=[];rotation=312;labelBackgroundColor=none;" parent="1" vertex="1" connectable="0">
          <mxGeometry x="463.9996468980625" y="-818.0027365377317" as="geometry">
            <mxPoint x="-0.7547095802227722" y="0.656059028990507" as="offset" />
          </mxGeometry>
        </mxCell>
        <mxCell id="8CU_9ESxWOxj5RsmSpPP-5" value="" style="endArrow=none;html=1;rounded=0;align=center;verticalAlign=middle;endFill=0;labelBackgroundColor=none;exitX=0.75;exitY=0;exitDx=0;exitDy=0;entryX=0.25;entryY=1;entryDx=0;entryDy=0;" edge="1" parent="1" source="EqzYKrc67vdqZvnxpz0O-26" target="U6vyLVcHFpK1ejSDDKVv-2">
          <mxGeometry x="-0.0017" relative="1" as="geometry">
            <mxPoint x="620" y="-638.76" as="sourcePoint" />
            <mxPoint x="780" y="-638.76" as="targetPoint" />
            <mxPoint as="offset" />
          </mxGeometry>
        </mxCell>
        <mxCell id="8CU_9ESxWOxj5RsmSpPP-6" value="2" style="resizable=0;html=1;align=left;verticalAlign=bottom;labelBackgroundColor=none;spacing=5;rotation=312;" connectable="0" vertex="1" parent="8CU_9ESxWOxj5RsmSpPP-5">
          <mxGeometry x="-1" relative="1" as="geometry">
            <mxPoint y="6" as="offset" />
          </mxGeometry>
        </mxCell>
        <mxCell id="8CU_9ESxWOxj5RsmSpPP-8" value="&lt;font style=&quot;font-size: 16px;&quot;&gt;*&lt;/font&gt;" style="resizable=0;html=1;align=right;verticalAlign=bottom;labelBackgroundColor=none;spacingBottom=-6;spacingTop=0;spacing=5;" connectable="0" vertex="1" parent="8CU_9ESxWOxj5RsmSpPP-5">
          <mxGeometry x="1" relative="1" as="geometry">
            <mxPoint x="-5" y="16" as="offset" />
          </mxGeometry>
        </mxCell>
        <mxCell id="8CU_9ESxWOxj5RsmSpPP-9" value="impft" style="edgeLabel;html=1;align=center;verticalAlign=middle;resizable=0;points=[];rotation=311;labelBackgroundColor=none;" vertex="1" connectable="0" parent="1">
          <mxGeometry x="292.0012649378648" y="-686.000334140125" as="geometry">
            <mxPoint x="-5.614688915729522" y="0.6893971131242509" as="offset" />
          </mxGeometry>
        </mxCell>
        <mxCell id="8CU_9ESxWOxj5RsmSpPP-10" value="" style="endArrow=none;html=1;rounded=0;align=center;verticalAlign=middle;endFill=0;labelBackgroundColor=none;exitX=0.25;exitY=0;exitDx=0;exitDy=0;entryX=0;entryY=1;entryDx=0;entryDy=0;" edge="1" parent="1" source="EqzYKrc67vdqZvnxpz0O-26" target="U6vyLVcHFpK1ejSDDKVv-2">
          <mxGeometry x="-0.0017" relative="1" as="geometry">
            <mxPoint x="291" y="-628" as="sourcePoint" />
            <mxPoint x="365" y="-730" as="targetPoint" />
            <mxPoint as="offset" />
          </mxGeometry>
        </mxCell>
        <mxCell id="8CU_9ESxWOxj5RsmSpPP-11" value="1" style="resizable=0;html=1;align=left;verticalAlign=bottom;labelBackgroundColor=none;spacing=5;rotation=-45;" connectable="0" vertex="1" parent="8CU_9ESxWOxj5RsmSpPP-10">
          <mxGeometry x="-1" relative="1" as="geometry">
            <mxPoint x="-1" y="7" as="offset" />
          </mxGeometry>
        </mxCell>
        <mxCell id="8CU_9ESxWOxj5RsmSpPP-12" value="&lt;font style=&quot;font-size: 16px;&quot;&gt;*&lt;/font&gt;" style="resizable=0;html=1;align=right;verticalAlign=bottom;labelBackgroundColor=none;spacingBottom=-6;spacingTop=0;spacing=5;" connectable="0" vertex="1" parent="8CU_9ESxWOxj5RsmSpPP-10">
          <mxGeometry x="1" relative="1" as="geometry">
            <mxPoint x="-1" y="11" as="offset" />
          </mxGeometry>
        </mxCell>
        <mxCell id="8CU_9ESxWOxj5RsmSpPP-13" value="Jahresuntersuchung" style="edgeLabel;html=1;align=center;verticalAlign=middle;resizable=0;points=[];rotation=306;labelBackgroundColor=none;" vertex="1" connectable="0" parent="1">
          <mxGeometry x="302.7282436565424" y="-682.8835329956611" as="geometry">
            <mxPoint x="13.590611859693286" y="16.04042609406509" as="offset" />
          </mxGeometry>
        </mxCell>
        <mxCell id="8CU_9ESxWOxj5RsmSpPP-14" value="Fütterung" style="html=1;fontStyle=1" vertex="1" parent="1">
          <mxGeometry x="200" y="-1090" width="70" height="30" as="geometry" />
        </mxCell>
        <mxCell id="8CU_9ESxWOxj5RsmSpPP-15" value="nimmt teil" style="endArrow=none;html=1;rounded=0;align=left;spacing=5;labelBackgroundColor=none;" edge="1" parent="1" source="8CU_9ESxWOxj5RsmSpPP-14" target="EqzYKrc67vdqZvnxpz0O-25">
          <mxGeometry width="50" height="50" relative="1" as="geometry">
            <mxPoint x="530" y="-930" as="sourcePoint" />
            <mxPoint x="530" y="-890" as="targetPoint" />
          </mxGeometry>
        </mxCell>
      </root>
    </mxGraphModel>
  </diagram>
</mxfile>
